<svg width="108" height="15" viewBox="0 0 108 15" fill="none" xmlns="http://www.w3.org/2000/svg">
<path d="M7.14168 0.521791L5.18879 4.40022L0.819452 5.02416C0.035902 5.13548 -0.278116 6.08165 0.290107 6.62358L3.45122 9.64078L2.70356 13.9029C2.56898 14.6734 3.39739 15.2504 4.09122 14.8901L8 12.8777L11.9088 14.8901C12.6026 15.2475 13.431 14.6734 13.2964 13.9029L12.5488 9.64078L15.7099 6.62358C16.2781 6.08165 15.9641 5.13548 15.1805 5.02416L10.8112 4.40022L8.85832 0.521791C8.50841 -0.16953 7.49458 -0.178317 7.14168 0.521791Z" fill="#FE7CD7"/>
<path d="M30.1417 0.521791L28.1888 4.40022L23.8195 5.02416C23.0359 5.13548 22.7219 6.08165 23.2901 6.62358L26.4512 9.64078L25.7036 13.9029C25.569 14.6734 26.3974 15.2504 27.0912 14.8901L31 12.8777L34.9088 14.8901C35.6026 15.2475 36.431 14.6734 36.2964 13.9029L35.5488 9.64078L38.7099 6.62358C39.2781 6.08165 38.9641 5.13548 38.1805 5.02416L33.8112 4.40022L31.8583 0.521791C31.5084 -0.16953 30.4946 -0.178317 30.1417 0.521791Z" fill="#FE7CD7"/>
<path d="M53.1417 0.521791L51.1888 4.40022L46.8195 5.02416C46.0359 5.13548 45.7219 6.08165 46.2901 6.62358L49.4512 9.64078L48.7036 13.9029C48.569 14.6734 49.3974 15.2504 50.0912 14.8901L54 12.8777L57.9088 14.8901C58.6026 15.2475 59.431 14.6734 59.2964 13.9029L58.5488 9.64078L61.7099 6.62358C62.2781 6.08165 61.9641 5.13548 61.1805 5.02416L56.8112 4.40022L54.8583 0.521791C54.5084 -0.16953 53.4946 -0.178317 53.1417 0.521791Z" fill="#FE7CD7"/>
<path d="M76.1417 0.521791L74.1888 4.40022L69.8195 5.02416C69.0359 5.13548 68.7219 6.08165 69.2901 6.62358L72.4512 9.64078L71.7036 13.9029C71.569 14.6734 72.3974 15.2504 73.0912 14.8901L77 12.8777L80.9088 14.8901C81.6026 15.2475 82.431 14.6734 82.2964 13.9029L81.5488 9.64078L84.7099 6.62358C85.2781 6.08165 84.9641 5.13548 84.1805 5.02416L79.8112 4.40022L77.8583 0.521791C77.5084 -0.16953 76.4946 -0.178317 76.1417 0.521791Z" fill="#FE7CD7"/>
<path d="M99.1417 0.521791L97.1888 4.40022L92.8195 5.02416C92.0359 5.13548 91.7219 6.08165 92.2901 6.62358L95.4512 9.64078L94.7036 13.9029C94.569 14.6734 95.3974 15.2504 96.0912 14.8901L100 12.8777L103.909 14.8901C104.603 15.2475 105.431 14.6734 105.296 13.9029L104.549 9.64078L107.71 6.62358C108.278 6.08165 107.964 5.13548 107.181 5.02416L102.811 4.40022L100.858 0.521791C100.508 -0.16953 99.4946 -0.178317 99.1417 0.521791Z" fill="#FE7CD7"/>
</svg>
